<svg id="Layer_1" data-name="Layer 1" xmlns="http://www.w3.org/2000/svg" viewBox="0 0 81.88 81.88"><defs><style>.cls-1{fill:#86deea;}.cls-2{fill:#103558;}</style></defs><title>Computas_symbol_2farge</title><path class="cls-1" d="M285,262.71A35,35,0,1,0,319.27,302,1.3,1.3,0,0,0,318,300.5H303a1.29,1.29,0,0,0-1.26,1,17.68,17.68,0,1,1-.12-8.09,1.29,1.29,0,0,0,1.25,1h15a1.3,1.3,0,0,0,1.28-1.47A35,35,0,0,0,285,262.71Z" transform="translate(-243.46 -256.77)"/><path class="cls-2" d="M325.2,294.39a41,41,0,1,0,0,6.1c.06-.92.09-1.85.09-2.78C325.33,296.59,325.29,295.49,325.2,294.39ZM319.27,302a35,35,0,1,1-.07-9,1.3,1.3,0,0,1-1.28,1.47h-15a1.29,1.29,0,0,1-1.25-1,17.66,17.66,0,1,0,.12,8.09,1.29,1.29,0,0,1,1.26-1H318A1.3,1.3,0,0,1,319.27,302Z" transform="translate(-243.46 -256.77)"/></svg>